<svg xmlns="http://www.w3.org/2000/svg" version="1.1" xmlns:xlink="http://www.w3.org/1999/xlink" xmlns:svgjs="http://svgjs.dev/svgjs" width="2000" height="1500" viewBox="0 0 2000 1500"><rect width="2000" height="1500" fill="#000000"></rect><g transform="matrix(0.75,0,0,0.75,250.25491573033696,516.735036544571)"><svg viewBox="0 0 356 111" data-background-color="#ffffff" preserveAspectRatio="xMidYMid meet" height="623" width="2000" xmlns="http://www.w3.org/2000/svg" xmlns:xlink="http://www.w3.org/1999/xlink"><g id="tight-bounds" transform="matrix(1,0,0,1,-0.06049999999996203,-0.08553035087720673)"><svg viewBox="0 0 356.12052 111.17106070175439" height="111.17106070175439" width="356.12052"><g><svg viewBox="0 0 356.12052 111.17106070175439" height="111.17106070175439" width="356.12052"><g><svg viewBox="0 0 356.12052 111.17106070175439" height="111.17106070175439" width="356.12052"><g><path d="M0 111.171v-111.171h356.121v111.171z" fill="#ffffff" stroke="transparent" stroke-width="0" rx="0%" data-fill-palette-color="tertiary"></path><path d="M3.283 107.888v-104.605h349.554v104.605z" fill="#000000" stroke="transparent" stroke-width="0" rx="0%" data-fill-palette-color="quaternary"></path><path d="M9.85 101.321v-91.471h336.421v91.471z" fill="#ffffff" stroke="transparent" stroke-width="0" data-fill-palette-color="tertiary"></path></g><g transform="matrix(1,0,0,1,19.69974,19.69974)" id="textblocktransform"><svg viewBox="0 0 316.72104 71.77158070175439" height="71.77158070175439" width="316.72104" id="textblock"><g><svg viewBox="0 0 316.72104 71.77158070175439" height="71.77158070175439" width="316.72104"><g transform="matrix(1,0,0,1,0,0)"><svg width="316.72104" viewBox="4.35 -35.5 205.18 46.5" height="71.77158070175439" data-palette-color="#ffffff"><path d="M8.15 0L5.5 0Q4.95 0 4.65-0.33 4.35-0.65 4.35-1.15L4.35-1.15 4.35-33.8Q4.35-34.35 4.65-34.68 4.95-35 5.5-35L5.5-35 18.2-35Q21.9-35 24.63-33.8 27.35-32.6 28.85-30.23 30.35-27.85 30.35-24.3L30.35-24.3Q30.35-20.75 28.85-18.4 27.35-16.05 24.63-14.85 21.9-13.65 18.2-13.65L18.2-13.65 9.35-13.65 9.35-1.15Q9.35-0.65 9.03-0.33 8.7 0 8.15 0L8.15 0ZM9.3-30.8L9.3-17.85 17.95-17.85Q21.65-17.85 23.5-19.5 25.35-21.15 25.35-24.3L25.35-24.3Q25.35-27.4 23.55-29.1 21.75-30.8 17.95-30.8L17.95-30.8 9.3-30.8ZM45.5 0.5L45.5 0.5Q42.3 0.5 40.07-0.93 37.85-2.35 36.7-4.9 35.55-7.45 35.55-10.75L35.55-10.75 35.55-24.85Q35.55-25.35 35.87-25.68 36.2-26 36.7-26L36.7-26 39.2-26Q39.7-26 40.02-25.68 40.35-25.35 40.35-24.85L40.35-24.85 40.35-11Q40.35-3.55 46.85-3.55L46.85-3.55Q49.95-3.55 51.82-5.53 53.7-7.5 53.7-11L53.7-11 53.7-24.85Q53.7-25.35 54.02-25.68 54.35-26 54.85-26L54.85-26 57.35-26Q57.85-26 58.15-25.68 58.45-25.35 58.45-24.85L58.45-24.85 58.45-1.15Q58.45-0.65 58.15-0.33 57.85 0 57.35 0L57.35 0 55 0Q54.5 0 54.17-0.33 53.85-0.65 53.85-1.15L53.85-1.15 53.85-3.35Q52.5-1.6 50.57-0.55 48.65 0.5 45.5 0.5ZM69.5 0L67.05 0Q66.55 0 66.22-0.33 65.9-0.65 65.9-1.15L65.9-1.15 65.9-24.8Q65.9-25.3 66.22-25.65 66.55-26 67.05-26L67.05-26 69.35-26Q69.85-26 70.2-25.65 70.55-25.3 70.55-24.8L70.55-24.8 70.55-22.6Q71.55-24.3 73.3-25.15 75.05-26 77.55-26L77.55-26 79.5-26Q80-26 80.32-25.68 80.65-25.35 80.65-24.85L80.65-24.85 80.65-22.8Q80.65-22.3 80.32-22 80-21.7 79.5-21.7L79.5-21.7 76.5-21.7Q73.8-21.7 72.25-20.13 70.7-18.55 70.7-15.85L70.7-15.85 70.7-1.15Q70.7-0.65 70.35-0.33 70 0 69.5 0L69.5 0ZM95.29 0.5L95.29 0.5Q90.09 0.5 87.04-2.68 83.99-5.85 83.69-11.35L83.69-11.35Q83.64-12 83.64-13.03 83.64-14.05 83.69-14.7L83.69-14.7Q83.89-18.25 85.34-20.93 86.79-23.6 89.32-25.05 91.84-26.5 95.24-26.5L95.24-26.5Q99.04-26.5 101.62-24.9 104.19-23.3 105.54-20.35 106.89-17.4 106.89-13.45L106.89-13.45 106.89-12.6Q106.89-12.05 106.57-11.75 106.24-11.45 105.74-11.45L105.74-11.45 88.44-11.45Q88.44-11.4 88.44-11.25 88.44-11.1 88.44-11L88.44-11Q88.54-8.95 89.34-7.18 90.14-5.4 91.67-4.3 93.19-3.2 95.24-3.2L95.24-3.2Q97.04-3.2 98.24-3.75 99.44-4.3 100.19-4.98 100.94-5.65 101.19-6.05L101.19-6.05Q101.64-6.65 101.89-6.78 102.14-6.9 102.69-6.9L102.69-6.9 105.14-6.9Q105.59-6.9 105.92-6.63 106.24-6.35 106.19-5.85L106.19-5.85Q106.14-5.1 105.39-4.03 104.64-2.95 103.27-1.9 101.89-0.85 99.87-0.18 97.84 0.5 95.29 0.5ZM88.44-15.05L88.44-14.9 102.14-14.9 102.14-15.05Q102.14-17.3 101.32-19.05 100.49-20.8 98.94-21.83 97.39-22.85 95.24-22.85L95.24-22.85Q93.09-22.85 91.57-21.83 90.04-20.8 89.24-19.05 88.44-17.3 88.44-15.05L88.44-15.05ZM128.79 0L114.69 0Q114.14 0 113.84-0.33 113.54-0.65 113.54-1.15L113.54-1.15 113.54-33.8Q113.54-34.35 113.84-34.68 114.14-35 114.69-35L114.69-35 128.39-35Q132.14-35 134.52-33.77 136.89-32.55 138.02-30.45 139.14-28.35 139.14-25.75L139.14-25.75Q139.14-23.7 138.47-22.23 137.79-20.75 136.79-19.83 135.79-18.9 134.84-18.4L134.84-18.4Q136.79-17.45 138.31-15.3 139.84-13.15 139.84-10.1L139.84-10.1Q139.84-7.35 138.59-5.05 137.34-2.75 134.87-1.38 132.39 0 128.79 0L128.79 0ZM118.44-16.2L118.44-4.05 128.14-4.05Q131.34-4.05 133.09-5.8 134.84-7.55 134.84-10.1L134.84-10.1Q134.84-12.75 133.09-14.48 131.34-16.2 128.14-16.2L128.14-16.2 118.44-16.2ZM118.44-30.95L118.44-20.2 127.64-20.2Q130.84-20.2 132.49-21.68 134.14-23.15 134.14-25.7L134.14-25.7Q134.14-28.25 132.49-29.6 130.84-30.95 127.64-30.95L127.64-30.95 118.44-30.95ZM149.84 0L147.49 0Q146.99 0 146.66-0.33 146.34-0.65 146.34-1.15L146.34-1.15 146.34-34.35Q146.34-34.85 146.66-35.18 146.99-35.5 147.49-35.5L147.49-35.5 149.84-35.5Q150.39-35.5 150.69-35.18 150.99-34.85 150.99-34.35L150.99-34.35 150.99-1.15Q150.99-0.65 150.69-0.33 150.39 0 149.84 0L149.84 0ZM169.09 0.5L169.09 0.5Q165.29 0.5 162.74-0.95 160.19-2.4 158.84-4.98 157.49-7.55 157.34-10.85L157.34-10.85Q157.29-11.7 157.29-13.03 157.29-14.35 157.34-15.15L157.34-15.15Q157.49-18.5 158.86-21.05 160.24-23.6 162.79-25.05 165.34-26.5 169.09-26.5L169.09-26.5Q172.84-26.5 175.39-25.05 177.94-23.6 179.31-21.05 180.69-18.5 180.84-15.15L180.84-15.15Q180.89-14.35 180.89-13.03 180.89-11.7 180.84-10.85L180.84-10.85Q180.69-7.55 179.34-4.98 177.99-2.4 175.44-0.95 172.89 0.5 169.09 0.5ZM169.09-3.35L169.09-3.35Q172.19-3.35 174.04-5.33 175.89-7.3 176.04-11.1L176.04-11.1Q176.09-11.85 176.09-13 176.09-14.15 176.04-14.9L176.04-14.9Q175.89-18.7 174.04-20.68 172.19-22.65 169.09-22.65L169.09-22.65Q165.99-22.65 164.11-20.68 162.24-18.7 162.14-14.9L162.14-14.9Q162.09-14.15 162.09-13 162.09-11.85 162.14-11.1L162.14-11.1Q162.24-7.3 164.11-5.33 165.99-3.35 169.09-3.35ZM197.78 11L197.78 11Q194.38 11 192.21 10.1 190.03 9.2 188.81 7.93 187.58 6.65 187.06 5.38 186.53 4.1 186.48 3.35L186.48 3.35Q186.43 2.85 186.81 2.5 187.18 2.15 187.63 2.15L187.63 2.15 190.03 2.15Q190.48 2.15 190.78 2.35 191.08 2.55 191.28 3.2L191.28 3.2Q191.58 3.95 192.18 4.88 192.78 5.8 194.03 6.48 195.28 7.15 197.53 7.15L197.53 7.15Q199.88 7.15 201.48 6.5 203.08 5.85 203.91 4.3 204.73 2.75 204.73 0L204.73 0 204.73-3.4Q203.53-1.85 201.58-0.83 199.63 0.2 196.68 0.2L196.68 0.2Q193.88 0.2 191.88-0.78 189.88-1.75 188.61-3.43 187.33-5.1 186.71-7.25 186.08-9.4 185.98-11.75L185.98-11.75Q185.93-13.15 185.98-14.5L185.98-14.5Q186.08-16.85 186.71-19 187.33-21.15 188.61-22.85 189.88-24.55 191.88-25.53 193.88-26.5 196.68-26.5L196.68-26.5Q199.68-26.5 201.66-25.4 203.63-24.3 204.88-22.65L204.88-22.65 204.88-24.8Q204.88-25.3 205.21-25.65 205.53-26 206.03-26L206.03-26 208.33-26Q208.83-26 209.18-25.65 209.53-25.3 209.53-24.8L209.53-24.8 209.53-0.55Q209.53 2.8 208.41 5.4 207.28 8 204.71 9.5 202.13 11 197.78 11ZM197.68-3.8L197.68-3.8Q200.18-3.8 201.71-4.95 203.23-6.1 203.96-7.85 204.68-9.6 204.73-11.4L204.73-11.4Q204.78-12.1 204.78-13.13 204.78-14.15 204.73-14.85L204.73-14.85Q204.68-16.65 203.96-18.4 203.23-20.15 201.71-21.3 200.18-22.45 197.68-22.45L197.68-22.45Q195.18-22.45 193.68-21.33 192.18-20.2 191.53-18.38 190.88-16.55 190.78-14.45L190.78-14.45Q190.73-13.15 190.78-11.8L190.78-11.8Q190.88-9.7 191.53-7.88 192.18-6.05 193.68-4.93 195.18-3.8 197.68-3.8Z" opacity="1" transform="matrix(1,0,0,1,0,0)" fill="#000000" class="wordmark-text-0" data-fill-palette-color="quaternary" id="text-0"></path></svg></g></svg></g></svg></g></svg></g><g></g></svg></g><defs></defs></svg><rect width="356.12052" height="111.17106070175439" fill="none" stroke="none" visibility="hidden"></rect></g></svg></g></svg>