<svg xmlns="http://www.w3.org/2000/svg" version="1.1" xmlns:xlink="http://www.w3.org/1999/xlink" xmlns:svgjs="http://svgjs.dev/svgjs" width="128" height="128" viewBox="0 0 128 128"><g transform="matrix(0.5988372093023255,0,0,0.5988372093023255,25.59824353603929,12.333870967741937)"><svg viewBox="0 0 115 155" data-background-color="#ffffff" preserveAspectRatio="xMidYMid meet" height="172" width="128" xmlns="http://www.w3.org/2000/svg" xmlns:xlink="http://www.w3.org/1999/xlink"><g id="tight-bounds" transform="matrix(1,0,0,1,0.11428571428571388,0.25)"><svg viewBox="0 0 114.77142857142857 154.5" height="154.5" width="114.77142857142857"><g><svg viewBox="0 0 114.77142857142857 154.5" height="154.5" width="114.77142857142857"><g><svg viewBox="0 0 114.77142857142857 154.5" height="154.5" width="114.77142857142857"><g id="textblocktransform"><svg viewBox="0 0 114.77142857142857 154.5" height="154.5" width="114.77142857142857" id="textblock"><g><svg viewBox="0 0 114.77142857142857 154.5" height="154.5" width="114.77142857142857"><g transform="matrix(1,0,0,1,0,0)"><svg width="114.77142857142857" viewBox="4.35 -35 26 35" height="154.5" data-palette-color="#096a2e"><path d="M8.15 0L5.5 0Q4.95 0 4.65-0.33 4.35-0.65 4.35-1.15L4.35-1.15 4.35-33.8Q4.35-34.35 4.65-34.68 4.95-35 5.5-35L5.5-35 18.2-35Q21.9-35 24.63-33.8 27.35-32.6 28.85-30.23 30.35-27.85 30.35-24.3L30.35-24.3Q30.35-20.75 28.85-18.4 27.35-16.05 24.63-14.85 21.9-13.65 18.2-13.65L18.2-13.65 9.35-13.65 9.35-1.15Q9.35-0.65 9.03-0.33 8.7 0 8.15 0L8.15 0ZM9.3-30.8L9.3-17.85 17.95-17.85Q21.65-17.85 23.5-19.5 25.35-21.15 25.35-24.3L25.35-24.3Q25.35-27.4 23.55-29.1 21.75-30.8 17.95-30.8L17.95-30.8 9.3-30.8Z" opacity="1" transform="matrix(1,0,0,1,0,0)" fill="#000000" class="wordmark-text-0" data-fill-palette-color="primary" id="text-0"></path></svg></g></svg></g></svg></g></svg></g><g></g></svg></g><defs></defs></svg><rect width="114.77142857142857" height="154.5" fill="none" stroke="none" visibility="hidden"></rect></g></svg></g></svg>